<svg width="28" height="28" viewBox="0 0 28 28" fill="none" xmlns="http://www.w3.org/2000/svg">
<path fill-rule="evenodd" clip-rule="evenodd" d="M14.2314 26.2502H14.229C12.9212 26.249 11.6834 25.6727 10.7442 24.6262C10.421 24.268 10.4502 23.7139 10.8095 23.3919C11.1689 23.0675 11.7219 23.0967 12.045 23.4572C12.6494 24.1304 13.4252 24.5002 14.2302 24.5002H14.2314C15.0399 24.5002 15.8192 24.1304 16.4247 23.456C16.749 23.0979 17.302 23.0687 17.6602 23.3919C18.0195 23.715 18.0487 24.2692 17.7255 24.6274C16.7829 25.6739 15.5427 26.2502 14.2314 26.2502Z" fill="#212121"/>
<mask id="mask0_0_104" style="mask-type:luminance" maskUnits="userSpaceOnUse" x="3" y="1" width="23" height="21">
<path fill-rule="evenodd" clip-rule="evenodd" d="M3.50012 1.16675H25.0799V21.4061H3.50012V1.16675Z" fill="white"/>
</mask>
<g mask="url(#mask0_0_104)">
<path fill-rule="evenodd" clip-rule="evenodd" d="M14.2883 2.91675C10.2108 2.91675 7.3688 6.11108 7.3688 8.97758C7.3688 11.4031 6.69564 12.5242 6.10064 13.5136C5.62347 14.3081 5.24664 14.9357 5.24664 16.2996C5.44147 18.4999 6.89397 19.6561 14.2883 19.6561C21.6418 19.6561 23.1398 18.4486 23.3335 16.2237C23.33 14.9357 22.9531 14.3081 22.476 13.5136C21.881 12.5242 21.2078 11.4031 21.2078 8.97758C21.2078 6.11108 18.3658 2.91675 14.2883 2.91675ZM14.2883 21.4061C8.83297 21.4061 3.90264 21.0211 3.50014 16.3742C3.49664 14.4516 4.08347 13.4739 4.60147 12.6129C5.1253 11.7402 5.6188 10.9177 5.6188 8.97758C5.6188 5.20575 9.10247 1.16675 14.2883 1.16675C19.4741 1.16675 22.9578 5.20575 22.9578 8.97758C22.9578 10.9177 23.4513 11.7402 23.9751 12.6129C24.4931 13.4739 25.08 14.4516 25.08 16.2996C24.6728 21.0211 19.7436 21.4061 14.2883 21.4061Z" fill="#212121"/>
</g>
</svg>
