<svg width="25" height="25" viewBox="0 0 25 25" fill="none" xmlns="http://www.w3.org/2000/svg">
<path fill-rule="evenodd" clip-rule="evenodd" d="M17.3597 2.0941C18.8581 2.00044 20.3358 2.52074 21.4492 3.54052C22.469 4.65395 22.9893 6.13159 22.9061 7.64044V17.3596C22.9997 18.8684 22.469 20.346 21.4596 21.4595C20.3462 22.4793 18.8581 22.9996 17.3597 22.9059H7.64049C6.13162 22.9996 4.65397 22.4793 3.54053 21.4595C2.52075 20.346 2.00045 18.8684 2.0941 17.3596V7.64044C2.00045 6.13159 2.52075 4.65395 3.54053 3.54052C4.65397 2.52074 6.13162 2.00044 7.64049 2.0941H17.3597ZM11.4387 17.5469L18.4419 10.5229C19.0767 9.87771 19.0767 8.83712 18.4419 8.20236L17.0891 6.84959C16.444 6.20443 15.4034 6.20443 14.7582 6.84959L14.061 7.5572C13.9569 7.66125 13.9569 7.83816 14.061 7.94221C14.061 7.94221 15.7155 9.58635 15.7468 9.62797C15.8612 9.75284 15.9341 9.91934 15.9341 10.1066C15.9341 10.4813 15.6323 10.7934 15.2473 10.7934C15.0704 10.7934 14.9039 10.7206 14.7894 10.6061L13.0516 8.87875C12.9684 8.7955 12.8227 8.7955 12.7394 8.87875L7.77577 13.8424C7.43237 14.1858 7.23466 14.6436 7.22425 15.1327L7.16181 17.5989C7.16181 17.7342 7.20344 17.859 7.29709 17.9527C7.39075 18.0463 7.51562 18.0984 7.6509 18.0984H10.0963C10.5958 18.0984 11.0745 17.9007 11.4387 17.5469Z" fill="#0097A7"/>
</svg>
