<svg width="246" height="125" viewBox="0 0 246 125" fill="none" xmlns="http://www.w3.org/2000/svg">
<path d="M13.1031 62.339C13.1031 94.6965 49.5543 113.635 76.0323 95.0332L169.098 29.6449C195.573 11.0408 232.027 29.9797 232.027 62.339C232.027 94.6965 195.573 113.635 169.098 95.0332L76.0323 29.6449C49.5543 11.0408 13.1031 29.9797 13.1031 62.339Z" stroke="#0097A7" stroke-width="15" stroke-miterlimit="10"/>
<path d="M1.04051 39.2807L0.975605 39.2652L1.04052 39.2807C8.63456 7.56157 43.8297 -8.8072 73.3839 4.99844C86.3276 11.044 91.5055 15.6021 115.754 40.1635C114.848 39.3212 113.757 38.3244 112.503 37.2107C108.594 33.7398 103.099 29.1337 96.6743 24.5346C83.8289 15.3391 67.2556 6.16184 52.2181 6.16184C52.2185 6.16184 52.2185 6.16184 52.2177 6.1618C52.2168 6.16175 52.2147 6.16163 52.2109 6.16138L52.1873 6.15968L52.1021 6.15338C52.0289 6.1481 51.9236 6.14094 51.7879 6.13342C51.5163 6.11838 51.1228 6.1019 50.62 6.09604C49.6146 6.08432 48.172 6.11512 46.3936 6.28507C42.8367 6.62496 37.9357 7.52146 32.5 9.74785C21.679 14.1799 8.74462 23.8798 0.0751677 44.9347C0.0767616 44.9078 0.0785967 44.8793 0.080686 44.8491C0.0997327 44.5743 0.139651 44.1688 0.208816 43.6486C0.347131 42.6081 0.60222 41.1099 1.04051 39.2807ZM171.998 120.003C159.052 113.955 153.873 109.395 129.621 84.8301C130.528 85.6733 131.621 86.6718 132.877 87.7877C136.786 91.2584 142.282 95.8647 148.706 100.464C161.552 109.66 178.125 118.837 193.163 118.837C193.162 118.837 193.162 118.837 193.163 118.837L193.17 118.838L193.193 118.84L193.279 118.846C193.352 118.851 193.457 118.858 193.593 118.866C193.864 118.881 194.258 118.897 194.76 118.903C195.766 118.915 197.208 118.884 198.987 118.714C202.544 118.375 207.444 117.478 212.88 115.252C223.701 110.82 236.635 101.119 245.304 80.0619C245.303 80.089 245.301 80.1178 245.299 80.1482C245.28 80.423 245.24 80.8285 245.171 81.3489C245.032 82.3896 244.777 83.8884 244.34 85.7185C236.746 117.438 201.549 133.806 171.998 120.003Z" fill="#0097A7" stroke="#0097A7" stroke-width="0.133333"/>
</svg>
