<svg width="28" height="28" viewBox="0 0 28 28" fill="none" xmlns="http://www.w3.org/2000/svg">
<path fill-rule="evenodd" clip-rule="evenodd" d="M19.146 3.23005L19.1472 4.10461C22.3609 4.35648 24.4839 6.54639 24.4873 9.90471L24.5 19.7348C24.5046 23.3963 22.2043 25.6492 18.5171 25.655L9.51053 25.6666C5.84639 25.6713 3.51729 23.3648 3.51268 19.6928L3.50001 9.97817C3.4954 6.59769 5.54345 4.41362 8.7572 4.1186L8.75605 3.24404C8.7549 2.73097 9.13502 2.34499 9.64185 2.34499C10.1487 2.34383 10.5288 2.72863 10.5299 3.24171L10.5311 4.05797L17.3733 4.04864L17.3721 3.23238C17.371 2.7193 17.7511 2.3345 18.2579 2.33333C18.7532 2.33216 19.1449 2.71697 19.146 3.23005ZM5.27506 10.3385L22.7146 10.3152V9.90704C22.665 7.39996 21.4072 6.08462 19.1495 5.88872L19.1506 6.7866C19.1506 7.28802 18.7601 7.68565 18.2648 7.68565C17.758 7.68682 17.3767 7.29035 17.3767 6.78893L17.3756 5.84441L10.5334 5.85373L10.5346 6.7971C10.5346 7.29968 10.1556 7.69615 9.64876 7.69615C9.14193 7.69731 8.76066 7.30201 8.76066 6.79943L8.7595 5.90154C6.51333 6.1266 5.27045 7.4466 5.27391 9.97584L5.27506 10.3385ZM17.7799 15.6383V15.6512C17.7914 16.1876 18.2291 16.5945 18.7601 16.5829C19.2785 16.57 19.692 16.1258 19.6805 15.5894C19.6563 15.0763 19.2405 14.6577 18.7233 14.6588C18.1934 14.6705 17.7787 15.1019 17.7799 15.6383ZM18.7313 20.874C18.2015 20.8624 17.7741 20.4204 17.773 19.884C17.7615 19.3476 18.1865 18.9034 18.7164 18.8905H18.7279C19.2693 18.8905 19.7081 19.3325 19.7081 19.8805C19.7093 20.4286 19.2716 20.8729 18.7313 20.874ZM13.0341 15.657C13.0572 16.1934 13.496 16.612 14.0259 16.5887C14.5443 16.5642 14.9578 16.1211 14.9347 15.5847C14.9221 15.06 14.4959 14.6518 13.9775 14.653C13.4477 14.6763 13.033 15.1206 13.0341 15.657ZM14.0305 20.8216C13.5007 20.8449 13.0629 20.4263 13.0387 19.8899C13.0387 19.3535 13.4523 18.9104 13.9821 18.8859C14.5005 18.8847 14.9278 19.2928 14.9394 19.8164C14.9635 20.354 14.5489 20.7971 14.0305 20.8216ZM8.28838 15.6978C8.31142 16.2342 8.75029 16.654 9.28016 16.6295C9.7985 16.6062 10.212 16.1619 10.1878 15.6255C10.1763 15.1008 9.75012 14.6926 9.23062 14.6938C8.70076 14.7171 8.28723 15.1614 8.28838 15.6978ZM9.28476 20.8274C8.7549 20.8519 8.31718 20.4321 8.29299 19.8957C8.29184 19.3593 8.70652 18.915 9.23638 18.8917C9.75473 18.8905 10.1821 19.2987 10.1936 19.8234C10.2178 20.3598 9.80426 20.8041 9.28476 20.8274Z" fill="#0097A7"/>
</svg>
