<svg width="42" height="42" viewBox="0 0 42 42" fill="none" xmlns="http://www.w3.org/2000/svg">
<g clip-path="url(#clip0_0_10)">
<path d="M43.5 24.75H24.75V43.5C24.75 45.5625 23.0625 47.25 21 47.25C18.9375 47.25 17.25 45.5625 17.25 43.5V24.75H-1.5C-3.5625 24.75 -5.25 23.0625 -5.25 21C-5.25 18.9375 -3.5625 17.25 -1.5 17.25H17.25V-1.5C17.25 -3.5625 18.9375 -5.25 21 -5.25C23.0625 -5.25 24.75 -3.5625 24.75 -1.5V17.25H43.5C45.5625 17.25 47.25 18.9375 47.25 21C47.25 23.0625 45.5625 24.75 43.5 24.75Z" fill="#FAFAFA"/>
</g>
<defs>
<clipPath id="clip0_0_10">
<rect width="42" height="42" fill="white"/>
</clipPath>
</defs>
</svg>
