<svg width="50" height="50" viewBox="0 0 50 50" fill="none" xmlns="http://www.w3.org/2000/svg">
<path fill-rule="evenodd" clip-rule="evenodd" d="M14.175 0H35.8499C44.3249 0 49.9999 5.94999 49.9999 14.8V35.2274C49.9999 44.0499 44.3249 49.9999 35.8499 49.9999H14.175C5.69999 49.9999 0 44.0499 0 35.2274V14.8C0 5.94999 5.69999 0 14.175 0ZM23.575 32.4749L35.4499 20.6C36.2999 19.75 36.2999 18.375 35.4499 17.5C34.5999 16.65 33.1999 16.65 32.3499 17.5L22.025 27.825L17.65 23.45C16.8 22.6 15.4 22.6 14.55 23.45C13.7 24.3 13.7 25.675 14.55 26.55L20.5 32.4749C20.925 32.8999 21.475 33.0999 22.025 33.0999C22.6 33.0999 23.15 32.8999 23.575 32.4749Z" fill="white"/>
</svg>
