<svg width="28" height="28" viewBox="0 0 28 28" fill="none" xmlns="http://www.w3.org/2000/svg">
<path fill-rule="evenodd" clip-rule="evenodd" d="M11.4371 17.7947C12.1657 18.2886 13.0536 18.5872 13.9984 18.5872C16.5028 18.5872 18.5405 16.5312 18.5405 14.0043C18.5405 13.051 18.2445 12.1551 17.755 11.42L16.5142 12.6719C16.7191 13.0625 16.833 13.5219 16.833 14.0043C16.833 15.5779 15.558 16.8643 13.9984 16.8643C13.5203 16.8643 13.065 16.7494 12.6779 16.5427L11.4371 17.7947ZM21.5002 7.6411C23.1509 9.15725 24.5511 11.2017 25.5983 13.6597C25.6894 13.878 25.6894 14.1307 25.5983 14.3374C23.1623 20.0574 18.8251 23.4802 13.9984 23.4802H13.9871C11.79 23.4802 9.68405 22.7566 7.82852 21.4357L5.6201 23.664C5.44935 23.8363 5.23306 23.9167 5.01677 23.9167C4.80048 23.9167 4.57281 23.8363 4.41344 23.664C4.12885 23.3768 4.08332 22.9174 4.31099 22.5843L4.34514 22.5384L21.1815 5.55066C21.2043 5.52769 21.227 5.50472 21.2384 5.48175L21.2384 5.48174C21.2612 5.45877 21.284 5.4358 21.2953 5.41283L22.3654 4.33315C22.7069 4.00006 23.2419 4.00006 23.5721 4.33315C23.9136 4.66625 23.9136 5.21757 23.5721 5.55066L21.5002 7.6411ZM9.44807 14.0088C9.44807 14.3074 9.48222 14.6061 9.52776 14.8817L5.31582 19.1315C4.17746 17.7991 3.18708 16.1911 2.40161 14.3419C2.31055 14.1351 2.31055 13.8824 2.40161 13.6642C4.83771 7.94422 9.17486 4.5329 13.9901 4.5329H14.0015C15.6294 4.5329 17.2117 4.92342 18.6688 5.65852L14.8667 9.49482C14.5935 9.44887 14.2975 9.41442 14.0015 9.41442C11.4857 9.41442 9.44807 11.4704 9.44807 14.0088Z" fill="#0097A7"/>
</svg>
