<svg width="186" height="180" viewBox="0 0 186 180" fill="none" xmlns="http://www.w3.org/2000/svg">
<path d="M165.967 90.5C165.967 129.436 134.403 161 95.4668 161C56.5307 161 24.9668 129.436 24.9668 90.5C24.9668 51.5639 56.5307 20 95.4668 20C134.403 20 165.967 51.5639 165.967 90.5Z" fill="url(#paint0_linear_5_895)"/>
<path d="M185.933 27.5C185.933 31.6421 182.575 35 178.433 35C174.291 35 170.933 31.6421 170.933 27.5C170.933 23.3579 174.291 20 178.433 20C182.575 20 185.933 23.3579 185.933 27.5Z" fill="#73C9D5"/>
<path d="M30 10C30 15.5228 25.5228 20 20 20C14.4772 20 10 15.5228 10 10C10 4.47715 14.4772 0 20 0C25.5228 0 30 4.47715 30 10Z" fill="#73C9D5"/>
<path d="M15 133C15 135.761 12.7614 138 10 138C7.23858 138 5 135.761 5 133C5 130.239 7.23858 128 10 128C12.7614 128 15 130.239 15 133Z" fill="#73C9D5"/>
<path d="M168 160.5C168 161.881 166.881 163 165.5 163C164.119 163 163 161.881 163 160.5C163 159.119 164.119 158 165.5 158C166.881 158 168 159.119 168 160.5Z" fill="#73C9D5"/>
<path d="M108.481 78.9238C108.481 86.144 102.692 91.9334 95.467 91.9334C88.2442 91.9334 82.4527 86.144 82.4527 78.9238C82.4527 71.7036 88.2442 65.9166 95.467 65.9166C102.692 65.9166 108.481 71.7036 108.481 78.9238Z" fill="#73C9D5"/>
<path d="M95.4669 115.083C84.8035 115.083 75.8002 113.35 75.8002 106.663C75.8002 99.9742 84.8601 98.3026 95.4669 98.3026C106.133 98.3026 115.134 100.036 115.134 106.722C115.134 113.412 106.074 115.083 95.4669 115.083Z" fill="#73C9D5"/>
<path d="M109 4.5C109 5.88071 107.881 7 106.5 7C105.119 7 104 5.88071 104 4.5C104 3.11929 105.119 2 106.5 2C107.881 2 109 3.11929 109 4.5Z" fill="#73C9D5"/>
<path d="M66 176.5C66 178.433 64.433 180 62.5 180C60.567 180 59 178.433 59 176.5C59 174.567 60.567 173 62.5 173C64.433 173 66 174.567 66 176.5Z" fill="#73C9D5"/>
<path d="M123 171C123 171.552 122.552 172 122 172C121.448 172 121 171.552 121 171C121 170.448 121.448 170 122 170C122.552 170 123 170.448 123 171Z" fill="#73C9D5"/>
<path d="M173 110.5C173 111.881 171.881 113 170.5 113C169.119 113 168 111.881 168 110.5C168 109.119 169.119 108 170.5 108C171.881 108 173 109.119 173 110.5Z" fill="#73C9D5"/>
<path d="M2 75C2 75.5523 1.55228 76 1 76C0.447715 76 0 75.5523 0 75C0 74.4477 0.447715 74 1 74C1.55228 74 2 74.4477 2 75Z" fill="#73C9D5"/>
<defs>
<linearGradient id="paint0_linear_5_895" x1="185.933" y1="180" x2="-34.1669" y2="114.081" gradientUnits="userSpaceOnUse">
<stop stop-color="#0097A7"/>
<stop offset="1" stop-color="#60B6BF"/>
</linearGradient>
</defs>
</svg>
