<svg width="35" height="28" viewBox="0 0 35 28" fill="none" xmlns="http://www.w3.org/2000/svg">
<path d="M1.83228 13.9106C1.83228 18.4354 6.92945 21.0837 10.632 18.4825L23.646 9.33883C27.3482 6.73731 32.4457 9.38564 32.4457 13.9106C32.4457 18.4354 27.3482 21.0837 23.646 18.4825L10.632 9.33883C6.92945 6.73731 1.83228 9.38564 1.83228 13.9106Z" stroke="#0097A7" stroke-width="2.16" stroke-miterlimit="10"/>
<path d="M0.159765 10.6897L0.159764 10.6897C0.0985945 10.945 0.063015 11.154 0.0437387 11.299C0.039586 11.3303 0.036193 11.3585 0.033465 11.3836C1.2469 8.49635 3.03753 7.15799 4.5391 6.54297C5.3008 6.231 5.98758 6.10536 6.48609 6.05772C6.73536 6.0339 6.93761 6.02958 7.07867 6.03123C7.14921 6.03205 7.20445 6.03436 7.24261 6.03648C7.2617 6.03753 7.2765 6.03854 7.2868 6.03928L7.29874 6.04016C7.30138 6.04036 7.30225 6.04041 7.30225 6.04042C7.30225 6.04043 7.30214 6.04043 7.30197 6.04043C9.40972 6.04043 11.7306 7.32629 13.5271 8.61234C14.426 9.25583 15.1948 9.90029 15.7417 10.3859C15.7564 10.399 15.771 10.4119 15.7854 10.4248C12.7262 7.3346 11.9912 6.71639 10.2555 5.9057C6.13091 3.97898 1.21946 6.26354 0.159765 10.6897Z" fill="#0097A7" stroke="#0097A7" stroke-width="0.048"/>
<path d="M34.2691 16.5669C34.2733 16.5356 34.2767 16.5073 34.2794 16.4822C33.066 19.3698 31.2754 20.7083 29.7738 21.3233C29.0122 21.6353 28.3254 21.7609 27.8269 21.8085C27.5776 21.8323 27.3754 21.8366 27.2343 21.835C27.1638 21.8341 27.1086 21.8318 27.0704 21.8297C27.0513 21.8287 27.0365 21.8276 27.0262 21.8269L27.0143 21.826C27.0107 21.8258 27.0104 21.8258 27.011 21.8258C24.9033 21.8258 22.5824 20.5398 20.7859 19.2537C19.887 18.6102 19.1182 17.9658 18.5713 17.4802C18.5563 17.4669 18.5416 17.4538 18.527 17.4408C21.5865 20.5313 22.3217 21.1498 24.0577 21.9608C28.1819 23.8872 33.0935 21.6026 34.1532 17.1765C34.2143 16.9211 34.2499 16.712 34.2691 16.5669Z" fill="#0097A7" stroke="#0097A7" stroke-width="0.048"/>
</svg>
